<svg width="21" height="21" viewBox="0 0 21 21" fill="none" xmlns="http://www.w3.org/2000/svg">
<g id="Interface / Credit_Card_01">
<path id="Vector" d="M2.60767 9.3667V13.3669C2.60767 14.3003 2.60767 14.7667 2.78932 15.1233C2.94911 15.4369 3.20389 15.6921 3.5175 15.8519C3.87367 16.0334 4.34016 16.0334 5.27176 16.0334H14.9436C15.8752 16.0334 16.341 16.0334 16.6972 15.8519C17.0108 15.6921 17.2664 15.4369 17.4262 15.1233C17.6077 14.7671 17.6077 14.3013 17.6077 13.3697V9.3667M2.60767 9.3667V7.70003M2.60767 9.3667H17.6077M2.60767 7.70003V7.03353C2.60767 6.10011 2.60767 5.63305 2.78932 5.27653C2.94911 4.96293 3.20389 4.70814 3.5175 4.54836C3.87402 4.3667 4.34107 4.3667 5.2745 4.3667H14.9412C15.8746 4.3667 16.3406 4.3667 16.6972 4.54836C17.0108 4.70814 17.2664 4.96293 17.4262 5.27653C17.6077 5.6327 17.6077 6.09919 17.6077 7.03079V7.70003M2.60767 7.70003H17.6077M5.941 12.7H9.27433M17.6077 9.3667V7.70003" stroke="#4F5174" stroke-width="2" stroke-linecap="round" stroke-linejoin="round"/>
</g>
</svg>
