<svg width="21" height="21" viewBox="0 0 21 21" fill="none" xmlns="http://www.w3.org/2000/svg">
<g id="Warning / Shield_Warning">
<path id="Vector" d="M10.1077 6.86686V10.2002M16.7744 8.67107C16.7744 14.1446 12.6343 16.5986 10.8792 17.393L10.877 17.394C10.6924 17.4775 10.5999 17.5194 10.3901 17.5554C10.2573 17.5782 9.95899 17.5782 9.82615 17.5554C9.61556 17.5193 9.52206 17.4772 9.336 17.393C7.58087 16.5986 3.44104 14.1446 3.44104 8.67106V5.36702C3.44104 4.4336 3.44104 3.96655 3.6227 3.61003C3.78248 3.29642 4.03727 3.04164 4.35087 2.88185C4.70739 2.7002 5.17445 2.7002 6.10787 2.7002H14.1079C15.0413 2.7002 15.5073 2.7002 15.8639 2.88185C16.1775 3.04164 16.4331 3.29642 16.5929 3.61003C16.7744 3.9662 16.7744 4.43269 16.7744 5.36429V8.67107ZM10.1492 12.7002V12.7835L10.0662 12.7837V12.7002H10.1492Z" stroke="#4F5174" stroke-width="1.6" stroke-linecap="round" stroke-linejoin="round"/>
</g>
</svg>
