<svg width="145" height="145" viewBox="0 0 145 145" fill="none" xmlns="http://www.w3.org/2000/svg">
<g id="file 2" clip-path="url(#clip0_1196_9353)">
<path id="Vector" d="M115.898 2.96973V28.6248H141.552L115.898 2.96973Z" fill="#F0F0F3"/>
<path id="Vector_2" d="M111.68 37.0625C109.35 37.0625 107.461 35.1736 107.461 32.8438V0.5H46.9922C40.0135 0.5 34.3359 6.17759 34.3359 13.1562V60.3188C35.7259 60.1928 37.1324 60.125 38.5547 60.125C52.9344 60.125 65.807 66.6995 74.3258 77H120.117C122.447 77 124.336 78.8889 124.336 81.2188C124.336 83.5486 122.447 85.4375 120.117 85.4375H79.8838C82.5208 90.5833 84.2213 96.2839 84.7672 102.312H120.117C122.447 102.312 124.336 104.201 124.336 106.531C124.336 108.861 122.447 110.75 120.117 110.75H84.7672C83.5055 124.683 76.0613 136.857 65.2054 144.5H131.367C138.346 144.5 144.023 138.822 144.023 131.844V37.0625H111.68ZM120.117 60.125H58.2422C55.9123 60.125 54.0234 58.2361 54.0234 55.9062C54.0234 53.5764 55.9123 51.6875 58.2422 51.6875H120.117C122.447 51.6875 124.336 53.5764 124.336 55.9062C124.336 58.2361 122.447 60.125 120.117 60.125Z" fill="#F0F0F3"/>
<path id="Vector_3" d="M38.5547 68.5625C17.6187 68.5625 0.585938 85.5953 0.585938 106.531C0.585938 127.467 17.6187 144.5 38.5547 144.5C59.4907 144.5 76.5234 127.467 76.5234 106.531C76.5234 85.5953 59.4907 68.5625 38.5547 68.5625ZM49.8047 110.75H38.5547C36.2248 110.75 34.3359 108.861 34.3359 106.531V89.6562C34.3359 87.3264 36.2248 85.4375 38.5547 85.4375C40.8846 85.4375 42.7734 87.3264 42.7734 89.6562V102.312H49.8047C52.1346 102.312 54.0234 104.201 54.0234 106.531C54.0234 108.861 52.1346 110.75 49.8047 110.75Z" fill="#F0F0F3"/>
</g>
<defs>
<clipPath id="clip0_1196_9353">
<rect width="144" height="144" fill="white" transform="translate(0.304688 0.5)"/>
</clipPath>
</defs>
</svg>
