<svg width="21" height="21" viewBox="0 0 21 21" fill="none" xmlns="http://www.w3.org/2000/svg">
<g id="File / File_Document">
<path id="Vector" d="M7.60763 14.3669H12.6076M7.60763 11.8669H12.6076M10.9413 2.70092C10.8617 2.7002 10.7721 2.7002 10.6699 2.7002H6.94112C6.0077 2.7002 5.54064 2.7002 5.18412 2.88185C4.87052 3.04164 4.61574 3.29642 4.45595 3.61003C4.27429 3.96655 4.27429 4.4336 4.27429 5.36702V15.0337C4.27429 15.9671 4.27429 16.4336 4.45595 16.7901C4.61574 17.1037 4.87052 17.3589 5.18412 17.5187C5.5403 17.7002 6.00679 17.7002 6.93841 17.7002L13.2769 17.7002C14.2085 17.7002 14.6743 17.7002 15.0305 17.5187C15.3441 17.3589 15.5997 17.1037 15.7595 16.7901C15.941 16.4339 15.941 15.9681 15.941 15.0365V7.9716C15.941 7.86938 15.9409 7.77981 15.9401 7.7002M10.9413 2.70092C11.1792 2.70309 11.3291 2.71192 11.4728 2.74642C11.6428 2.78725 11.8058 2.85458 11.955 2.94596C12.1231 3.049 12.2675 3.19337 12.5555 3.48145L15.1601 6.08601C15.4484 6.37427 15.5917 6.518 15.6948 6.68619C15.7861 6.83531 15.8537 6.99791 15.8946 7.16797C15.9291 7.31168 15.938 7.46232 15.9401 7.7002M10.9413 2.70092L10.941 5.0337C10.941 5.96712 10.941 6.43365 11.1226 6.79017C11.2824 7.10378 11.5372 7.35893 11.8508 7.51872C12.207 7.7002 12.6735 7.7002 13.6051 7.7002H15.9401" stroke="#4F5174" stroke-width="1.6" stroke-linecap="round" stroke-linejoin="round"/>
</g>
</svg>
