<svg width="21" height="21" viewBox="0 0 21 21" fill="none" xmlns="http://www.w3.org/2000/svg">
<g id="Component 1">
<path id="Vector" d="M10.1077 12.7004L12.6077 10.2004M12.6077 10.2004L10.1077 7.70036M12.6077 10.2004H3.44104M7.60771 6.24085V6.20052C7.60771 5.2671 7.60771 4.80004 7.78936 4.44352C7.94915 4.12992 8.20393 3.87514 8.51754 3.71535C8.87406 3.53369 9.34111 3.53369 10.2745 3.53369H14.1079C15.0413 3.53369 15.5073 3.53369 15.8639 3.71535C16.1775 3.87514 16.4331 4.12992 16.5929 4.44352C16.7744 4.79969 16.7744 5.26619 16.7744 6.19778V14.2033C16.7744 15.1349 16.7744 15.6008 16.5929 15.9569C16.4331 16.2705 16.1775 16.5258 15.8639 16.6855C15.5077 16.867 15.0419 16.867 14.1103 16.867H10.2718C9.3402 16.867 8.87371 16.867 8.51754 16.6855C8.20393 16.5258 7.94915 16.2703 7.78936 15.9567C7.60771 15.6002 7.60771 15.1338 7.60771 14.2004V14.1587" stroke="#4F5174" stroke-width="1.6" stroke-linecap="round" stroke-linejoin="round"/>
</g>
</svg>
