<svg width="144" height="145" viewBox="0 0 144 145" fill="none" xmlns="http://www.w3.org/2000/svg">
<g id="mailbox 2" clip-path="url(#clip0_764_8403)">
<g id="Group">
<path id="Vector" d="M45.1992 140.281C45.1992 142.611 47.0881 144.5 49.418 144.5H67.4931C69.8229 144.5 71.7118 142.611 71.7118 140.281V116.788H45.1992V140.281Z" fill="#F0F0F3"/>
<path id="Vector_2" d="M139.792 99.9126H71.7109V108.35H139.792C145.377 108.146 145.386 100.12 139.792 99.9126Z" fill="#F0F0F3"/>
<path id="Vector_3" d="M71.7109 63.4626V91.4751H108.461V63.4626C107.538 39.1187 72.6303 39.1263 71.7109 63.4626Z" fill="#F0F0F3"/>
<path id="Vector_4" d="M63.2743 63.4626C63.2743 48.6782 75.3025 36.6502 90.0869 36.6502H53.6369V63.4626C53.6369 70.4413 47.9593 76.1189 40.9807 76.1189C34.002 76.1189 28.3244 70.4413 28.3244 63.4626V36.6502C13.0348 35.8802 -0.034844 48.0982 0.0118434 63.4626V104.131C0.0118434 106.461 1.90072 108.35 4.23059 108.35H63.2743V63.4626Z" fill="#F0F0F3"/>
<path id="Vector_5" d="M22.9062 27.0126H36.7626V63.4626C36.7626 65.7925 38.6515 67.6813 40.9813 67.6813C43.3112 67.6813 45.2001 65.7925 45.2001 63.4626V4.71875C45.2001 2.38887 43.3112 0.5 40.9813 0.5H22.9062C20.5764 0.5 18.6875 2.38887 18.6875 4.71875V22.7938C18.6875 25.1237 20.5764 27.0126 22.9062 27.0126Z" fill="#F0F0F3"/>
</g>
</g>
<defs>
<clipPath id="clip0_764_8403">
<rect width="144" height="144" fill="white" transform="translate(0 0.5)"/>
</clipPath>
</defs>
</svg>
