<svg width="32" height="32" viewBox="0 0 32 32" fill="none" xmlns="http://www.w3.org/2000/svg">
<g id="diamond 1" clip-path="url(#clip0_390_6839)">
<path id="Vector" d="M19.4225 16.4448C19.0851 16.4448 18.8113 16.7187 18.8113 17.0561C18.8113 17.3935 19.0851 17.6673 19.4225 17.6673C19.7599 17.6673 20.0338 17.3935 20.0338 17.0561C20.0338 16.7187 19.7599 16.4448 19.4225 16.4448Z" fill="#E9673C"/>
<path id="Vector_2" d="M0.260035 15.0141C0.261685 15.016 0.263152 15.0181 0.264864 15.02C0.265108 15.0202 0.265292 15.0205 0.265536 15.0208L15.3019 31.6464C15.414 31.7703 15.5838 31.8477 15.7553 31.8477C15.9263 31.8477 16.0958 31.7712 16.2087 31.6464L31.2451 15.0208C31.2453 15.0206 31.2455 15.0203 31.2457 15.02C31.2474 15.0181 31.2488 15.016 31.2506 15.0141C31.4465 14.7912 31.4516 14.4639 31.2738 14.2359C31.2721 14.2337 31.2708 14.2312 31.269 14.229L26.3791 8.1166C26.2632 7.97162 26.0875 7.88721 25.9018 7.88721C23.41 7.88721 7.63631 7.88721 5.60878 7.88721C5.42309 7.88721 5.24748 7.97162 5.13146 8.1166L0.241576 14.229C0.239803 14.2312 0.238581 14.2336 0.236808 14.2359C0.0571656 14.4663 0.0663342 14.7937 0.260035 15.0141ZM12.4339 9.10968H19.0766L22.0106 13.9996H9.49997L12.4339 9.10968ZM9.35816 15.222H22.1523L15.7552 29.7222L9.35816 15.222ZM23.4885 15.222H29.4148L17.8445 28.0151L23.4885 15.222ZM8.022 15.222L13.666 28.0151L2.09576 15.222H8.022ZM29.5199 13.9996H23.4362L20.5022 9.10968H25.608L29.5199 13.9996ZM5.90248 9.10968H11.0083L8.07432 13.9996H1.99057L5.90248 9.10968Z" fill="#E9673C"/>
<path id="Vector_3" d="M16.9777 16.4448H12.4411C12.1035 16.4448 11.8298 16.7185 11.8298 17.0561C11.8298 17.3936 12.1035 17.6673 12.4411 17.6673H16.9777C17.3153 17.6673 17.5889 17.3936 17.5889 17.0561C17.5889 16.7185 17.3153 16.4448 16.9777 16.4448Z" fill="#E9673C"/>
<path id="Vector_4" d="M15.7552 5.44262C16.0927 5.44262 16.3664 5.16897 16.3664 4.83139V1.16397C16.3664 0.826385 16.0927 0.552734 15.7552 0.552734C15.4176 0.552734 15.1439 0.826385 15.1439 1.16397V4.83139C15.1439 5.16897 15.4176 5.44262 15.7552 5.44262Z" fill="#E9673C"/>
<path id="Vector_5" d="M19.8548 5.26336L22.2997 2.81841C22.5384 2.57972 22.5384 2.19269 22.2997 1.95394C22.061 1.71519 21.674 1.71525 21.4352 1.95394L18.9903 4.39889C18.7516 4.63757 18.7516 5.02461 18.9903 5.26336C19.229 5.50204 19.616 5.50211 19.8548 5.26336Z" fill="#E9673C"/>
<path id="Vector_6" d="M11.6555 5.26333C11.8942 5.50202 12.2812 5.50202 12.5199 5.26333C12.7586 5.02465 12.7586 4.63761 12.5199 4.39886L10.075 1.95392C9.83632 1.71523 9.44928 1.71523 9.21053 1.95392C8.97178 2.19261 8.97185 2.57964 9.21053 2.81839L11.6555 5.26333Z" fill="#E9673C"/>
</g>
<defs>
<clipPath id="clip0_390_6839">
<rect width="31.2953" height="31.2953" fill="white" transform="translate(0.107666 0.552734)"/>
</clipPath>
</defs>
</svg>
