<svg width="20" height="20" viewBox="0 0 20 20" fill="none" xmlns="http://www.w3.org/2000/svg">
<g id="Icon">
<path id="Vector" d="M3.33333 4.99999L8.42303 8.84355L8.42473 8.84495C8.98987 9.25939 9.27261 9.46674 9.5823 9.54684C9.85602 9.61763 10.1438 9.61763 10.4175 9.54684C10.7274 9.46667 11.011 9.25872 11.5771 8.84355C11.5771 8.84355 14.8417 6.33827 16.6667 4.99999M2.5 13.1668V6.83349C2.5 5.90007 2.5 5.43301 2.68166 5.07649C2.84144 4.76288 3.09623 4.5081 3.40983 4.34831C3.76635 4.16666 4.23341 4.16666 5.16683 4.16666H14.8335C15.7669 4.16666 16.233 4.16666 16.5895 4.34831C16.9031 4.5081 17.1587 4.76288 17.3185 5.07649C17.5 5.43266 17.5 5.89915 17.5 6.83075V13.1696C17.5 14.1012 17.5 14.5671 17.3185 14.9232C17.1587 15.2368 16.9031 15.4921 16.5895 15.6518C16.2333 15.8333 15.7675 15.8333 14.8359 15.8333H5.16409C4.23249 15.8333 3.766 15.8333 3.40983 15.6518C3.09623 15.4921 2.84144 15.2368 2.68166 14.9232C2.5 14.5667 2.5 14.1002 2.5 13.1668Z" stroke="#B4B4C3" stroke-width="1.6" stroke-linecap="round" stroke-linejoin="round"/>
</g>
</svg>
