<svg width="48" height="48" viewBox="0 0 48 48" fill="none" xmlns="http://www.w3.org/2000/svg">
<g id="gift-box-with-a-bow 2" clip-path="url(#clip0_436_17964)">
<g id="Group">
<g id="Group_2">
<g id="Group_3">
<path id="Vector" d="M21.3125 26.6533C17.3592 26.6533 5.72429 26.6533 5.72429 26.6533C4.48916 26.6533 3.47852 27.6638 3.47852 28.8989V45.7545C3.47852 46.9896 4.48916 48.0001 5.72429 48.0001C5.72429 48.0001 17.6027 48.0001 21.5746 48.0001C22.1029 48.0001 22.1029 47.4325 22.1029 47.4325V27.4164C22.1029 27.4164 22.1027 26.6533 21.3125 26.6533Z" fill="#B4B4C3" fill-opacity="0.4"/>
<path id="Vector_2" d="M42.275 26.6533C42.275 26.6533 30.5955 26.6533 26.7027 26.6533C25.7542 26.6533 25.8962 27.6411 25.8962 27.6411V47.4508C25.8962 47.4508 25.8885 47.9996 26.459 47.9996C30.4129 47.9996 42.2747 47.9996 42.2747 47.9996C43.5098 47.9996 44.5204 46.9891 44.5204 45.754V28.8989C44.5208 27.6638 43.5101 26.6533 42.275 26.6533Z" fill="#B4B4C3" fill-opacity="0.4"/>
</g>
<g id="Group_4">
<path id="Vector_3" d="M22.1036 13.3918C22.1036 13.3918 22.1036 12.6309 21.3516 12.6309C16.8488 12.6309 3.18913 12.6309 3.18913 12.6309C1.954 12.6309 0.943359 13.6415 0.943359 14.8765V21.8865C0.943359 23.1216 1.954 24.1321 3.18913 24.1321C3.18913 24.1321 16.91 24.1321 21.4131 24.1321C22.1036 24.1321 22.1036 23.5333 22.1036 23.5333V13.3918Z" fill="#B4B4C3" fill-opacity="0.4"/>
<path id="Vector_4" d="M44.8108 12.6309C44.8108 12.6309 31.1456 12.6309 26.5904 12.6309C25.8965 12.6309 25.8965 13.292 25.8965 13.292V23.5472C25.8965 23.5472 25.8965 24.1321 26.7401 24.1321C31.2576 24.1321 44.8108 24.1321 44.8108 24.1321C46.0459 24.1321 47.0566 23.1216 47.0566 21.8865V14.8765C47.0566 13.6415 46.0459 12.6309 44.8108 12.6309Z" fill="#B4B4C3" fill-opacity="0.4"/>
</g>
<g id="Group_5">
<path id="Vector_5" d="M14.4658 10.9687C13.4383 10.9687 12.4999 10.8872 11.6769 10.7264C9.58654 10.318 8.14984 9.52317 7.28465 8.29671C6.50944 7.19755 6.2722 5.8425 6.57931 4.26902C7.11727 1.51605 8.96611 0 11.7849 0C12.3814 0 13.0365 0.0688816 13.7322 0.204845C15.5018 0.550562 17.7653 1.5653 19.7871 2.9192C23.2172 5.21651 23.3869 6.6447 23.2161 7.51922C22.9649 8.80424 21.7639 9.72245 19.5441 10.3265C18.0444 10.7346 16.1934 10.9687 14.4658 10.9687ZM11.785 3.59935C10.6934 3.59935 10.3182 3.90433 10.1122 4.95915C9.94371 5.82156 10.1562 6.12277 10.2259 6.22176C10.5178 6.6357 11.2781 6.98093 12.367 7.19346C12.9545 7.30832 13.6805 7.36902 14.4657 7.36902C16.1923 7.36902 17.7134 7.1074 18.7228 6.82124C18.7962 6.80046 18.9103 6.71358 18.788 6.64077C17.4685 5.56583 15.0544 4.13044 13.0421 3.73728C12.5733 3.64598 12.1502 3.59935 11.785 3.59935Z" fill="#B4B4C3" fill-opacity="0.4"/>
</g>
<g id="Group_6">
<path id="Vector_6" d="M33.5893 10.9685C33.5893 10.9685 33.5893 10.9685 33.589 10.9685C31.8614 10.9685 30.0106 10.7344 28.5109 10.3264C26.291 9.72245 25.0901 8.80408 24.8389 7.51922C24.6683 6.6447 24.8376 5.21651 28.2681 2.91921C30.2896 1.5653 32.553 0.550562 34.323 0.204845C35.0187 0.0688816 35.6738 0 36.2698 0C39.0892 0 40.9379 1.51621 41.4754 4.26919C41.7828 5.8425 41.5457 7.19755 40.7704 8.29672C39.9052 9.52333 38.4686 10.318 36.3778 10.7264C35.5552 10.8869 34.6167 10.9685 33.5893 10.9685ZM29.2958 6.61836C29.1788 6.68626 29.2354 6.79343 29.2961 6.81093C30.3049 7.10102 31.8421 7.36902 33.589 7.36902C34.3745 7.36902 35.1001 7.30832 35.6878 7.19346C36.7765 6.98077 37.5372 6.6357 37.8289 6.22176C37.8989 6.12277 38.1116 5.82156 37.9426 4.95915C37.7368 3.90433 37.3615 3.59935 36.2697 3.59935C35.9046 3.59935 35.4819 3.64582 35.0128 3.73744C33.0003 4.13044 30.6153 5.54325 29.2958 6.61836Z" fill="#B4B4C3" fill-opacity="0.4"/>
</g>
</g>
</g>
</g>
<defs>
<clipPath id="clip0_436_17964">
<rect width="48" height="48" fill="white"/>
</clipPath>
</defs>
</svg>
