<svg width="87" height="86" viewBox="0 0 87 86" fill="none" xmlns="http://www.w3.org/2000/svg">
<g id="list 2" clip-path="url(#clip0_764_8914)">
<path id="Vector" d="M78.4375 40.3125H67.6875C66.2021 40.3125 65 41.516 65 43V75.25C65 81.1776 69.8211 86 75.75 86C81.6789 86 86.5 81.1776 86.5 75.25V48.375C86.5 43.9291 82.8834 40.3125 78.4375 40.3125Z" fill="#F0F0F3"/>
<path id="Vector_2" d="M23.2689 55.165C23.2689 52.9814 21.4922 51.2061 19.3086 51.2061C17.125 51.2061 15.3496 52.9814 15.3496 55.165C15.3496 57.3486 17.125 59.1253 19.3086 59.1253C21.4922 59.1253 23.2689 57.3486 23.2689 55.165Z" fill="#F0F0F3"/>
<path id="Vector_3" d="M59.625 75.25V8.0625C59.625 3.62812 55.9969 0 51.5625 0H8.5625C4.12813 0 0.5 3.62812 0.5 8.0625V75.25C0.5 81.1894 5.31063 86 11.25 86H63.7638C61.1838 83.1513 59.625 79.3887 59.625 75.25ZM30.8591 72.6281C30.8591 75.4771 28.5416 77.7945 25.6926 77.7945H12.9257C10.0766 77.7945 7.75786 75.4771 7.75786 72.6281V70.6753C7.75786 66.8862 9.61707 63.547 12.4443 61.4395C10.9254 59.7786 9.97425 57.588 9.97425 55.1647C9.97425 50.0181 14.1616 45.8307 19.3082 45.8307C24.4548 45.8307 28.6435 50.0181 28.6435 55.1647C28.6435 57.5886 27.6924 59.7789 26.1726 61.44C28.9996 63.5476 30.8585 66.8868 30.8585 70.6756L30.8591 72.6281ZM30.8591 35.0031C30.8591 37.8521 28.5416 40.1695 25.6926 40.1695H12.9257C10.0766 40.1695 7.75786 37.8521 7.75786 35.0031V33.0503C7.75786 29.2612 9.61707 25.922 12.4443 23.8145C10.9254 22.1536 9.97425 19.963 9.97425 17.5397C9.97425 12.3931 14.1616 8.20574 19.3082 8.20574C24.4548 8.20574 28.6435 12.3931 28.6435 17.5397C28.6435 19.9636 27.6924 22.1539 26.1726 23.815C28.9996 25.9225 30.8585 29.2618 30.8585 33.0506L30.8591 35.0031ZM48.875 75.25H38.125C36.641 75.25 35.4375 74.0465 35.4375 72.5625C35.4375 71.0785 36.641 69.875 38.125 69.875H48.875C50.3604 69.875 51.5625 71.0785 51.5625 72.5625C51.5625 74.0465 50.3604 75.25 48.875 75.25ZM48.875 64.5H38.125C36.641 64.5 35.4375 63.2965 35.4375 61.8125C35.4375 60.3285 36.641 59.125 38.125 59.125H48.875C50.3604 59.125 51.5625 60.3285 51.5625 61.8125C51.5625 63.2965 50.3604 64.5 48.875 64.5ZM48.875 53.75H38.125C36.641 53.75 35.4375 52.5465 35.4375 51.0625C35.4375 49.5785 36.641 48.375 38.125 48.375H48.875C50.3604 48.375 51.5625 49.5785 51.5625 51.0625C51.5625 52.5465 50.3604 53.75 48.875 53.75ZM48.875 37.625H38.125C36.641 37.625 35.4375 36.4215 35.4375 34.9375C35.4375 33.4535 36.641 32.25 38.125 32.25H48.875C50.3604 32.25 51.5625 33.4535 51.5625 34.9375C51.5625 36.4215 50.3604 37.625 48.875 37.625ZM48.875 26.875H38.125C36.641 26.875 35.4375 25.6715 35.4375 24.1875C35.4375 22.7035 36.641 21.5 38.125 21.5H48.875C50.3604 21.5 51.5625 22.7035 51.5625 24.1875C51.5625 25.6715 50.3604 26.875 48.875 26.875ZM48.875 16.125H38.125C36.641 16.125 35.4375 14.9215 35.4375 13.4375C35.4375 11.9535 36.641 10.75 38.125 10.75H48.875C50.3604 10.75 51.5625 11.9535 51.5625 13.4375C51.5625 14.9215 50.3604 16.125 48.875 16.125Z" fill="#F0F0F3"/>
<path id="Vector_4" d="M23.2689 17.54C23.2689 15.3564 21.4922 13.5811 19.3086 13.5811C17.125 13.5811 15.3496 15.3564 15.3496 17.54C15.3496 19.7236 17.125 21.5003 19.3086 21.5003C21.4922 21.5003 23.2689 19.7236 23.2689 17.54Z" fill="#F0F0F3"/>
<path id="Vector_5" d="M19.3084 64.5C15.9031 64.5 13.1328 67.2703 13.1328 70.6756V72.4195H25.4838V70.6756C25.4838 67.2703 22.7137 64.5 19.3084 64.5Z" fill="#F0F0F3"/>
<path id="Vector_6" d="M19.3084 26.875C15.9031 26.875 13.1328 29.6453 13.1328 33.0506V34.7945H25.4838V33.0506C25.4838 29.6453 22.7137 26.875 19.3084 26.875Z" fill="#F0F0F3"/>
</g>
<defs>
<clipPath id="clip0_764_8914">
<rect width="86" height="86" fill="white" transform="translate(0.5)"/>
</clipPath>
</defs>
</svg>
