<svg width="20" height="21" viewBox="0 0 20 21" fill="none" xmlns="http://www.w3.org/2000/svg">
<g id="Name=Delete">
<path id="Vector" d="M5.00004 5.33337V15.1667C5.00004 16.1001 5.00004 16.5665 5.1817 16.923C5.34149 17.2366 5.59627 17.4921 5.90987 17.6519C6.26604 17.8334 6.73254 17.8334 7.66413 17.8334H12.3359C13.2675 17.8334 13.7334 17.8334 14.0895 17.6519C14.4031 17.4921 14.6588 17.2366 14.8186 16.923C15 16.5669 15 16.1009 15 15.1693V5.33337M5.00004 5.33337H6.66671M5.00004 5.33337H3.33337M6.66671 5.33337H13.3334M6.66671 5.33337C6.66671 4.5568 6.66671 4.16871 6.79357 3.86243C6.96273 3.45405 7.28697 3.1294 7.69535 2.96024C8.00164 2.83337 8.39014 2.83337 9.16671 2.83337H10.8334C11.6099 2.83337 11.9982 2.83337 12.3045 2.96024C12.7129 3.1294 13.0373 3.45405 13.2064 3.86243C13.3333 4.16871 13.3334 4.55681 13.3334 5.33337M13.3334 5.33337H15M15 5.33337H16.6667" stroke="#4F5174" stroke-width="1.6" stroke-linecap="round" stroke-linejoin="round"/>
</g>
</svg>
