<svg width="20" height="21" viewBox="0 0 20 21" fill="none" xmlns="http://www.w3.org/2000/svg">
<g id="Name=Contact list">
<path id="Vector" d="M14.1667 17.8334C14.1667 15.5322 12.3012 13.6667 10 13.6667C7.69881 13.6667 5.83333 15.5322 5.83333 17.8334M14.1667 17.8334H14.8359C15.7675 17.8334 16.2333 17.8334 16.5895 17.6519C16.9031 17.4921 17.1587 17.2365 17.3185 16.9229C17.5 16.5667 17.5 16.1009 17.5 15.1693V5.49747C17.5 4.56587 17.5 4.09938 17.3185 3.7432C17.1587 3.4296 16.9031 3.17482 16.5895 3.01503C16.233 2.83337 15.7669 2.83337 14.8335 2.83337H5.16683C4.23341 2.83337 3.76635 2.83337 3.40983 3.01503C3.09623 3.17482 2.84144 3.4296 2.68166 3.7432C2.5 4.09972 2.5 4.56678 2.5 5.5002V15.1669C2.5 16.1003 2.5 16.5664 2.68166 16.9229C2.84144 17.2365 3.09623 17.4921 3.40983 17.6519C3.766 17.8334 4.23249 17.8334 5.16409 17.8334H5.83333M14.1667 17.8334H5.83333M10 11.1667C8.61929 11.1667 7.5 10.0474 7.5 8.66671C7.5 7.286 8.61929 6.16671 10 6.16671C11.3807 6.16671 12.5 7.286 12.5 8.66671C12.5 10.0474 11.3807 11.1667 10 11.1667Z" stroke="#4F5174" stroke-width="1.6" stroke-linecap="round" stroke-linejoin="round"/>
</g>
</svg>
