<svg width="21" height="20" viewBox="0 0 21 20" fill="none" xmlns="http://www.w3.org/2000/svg">
<g id="Interface / External_Link">
<path id="Vector" d="M8.83285 4.16634H7.33284C6.39942 4.16634 5.93237 4.16634 5.57585 4.348C5.26224 4.50779 5.00746 4.76257 4.84767 5.07617C4.66602 5.43269 4.66602 5.89975 4.66602 6.83317V13.1665C4.66602 14.0999 4.66602 14.5664 4.84767 14.9229C5.00746 15.2365 5.26224 15.4917 5.57585 15.6515C5.93202 15.833 6.39851 15.833 7.33011 15.833H13.6686C14.6002 15.833 15.066 15.833 15.4222 15.6515C15.7358 15.4917 15.9914 15.2363 16.1512 14.9227C16.3327 14.5665 16.3327 14.1005 16.3327 13.1689V11.6663M17.166 7.49967V3.33301M17.166 3.33301H12.9993M17.166 3.33301L11.3327 9.16634" stroke="#4F5174" stroke-width="1.6" stroke-linecap="round" stroke-linejoin="round"/>
</g>
</svg>
