<svg width="27" height="26" viewBox="0 0 27 26" fill="none" xmlns="http://www.w3.org/2000/svg">
<path d="M4.5957 19.5001V7.58342C4.5957 3.25008 5.67904 2.16675 10.0124 2.16675H17.5957C21.929 2.16675 23.0124 3.25008 23.0124 7.58342V18.4167C23.0124 18.5684 23.0124 18.7201 23.0015 18.8717" fill="#E9673C"/>
<path d="M4.5957 19.5001V7.58341C4.5957 3.25008 5.67904 2.16675 10.0124 2.16675H17.5957C21.929 2.16675 23.0124 3.25008 23.0124 7.58341V18.4167C23.0124 18.5684 23.0124 18.7201 23.0015 18.8717" stroke="#E9673C" stroke-width="1.7" stroke-linecap="round" stroke-linejoin="round"/>
<path d="M7.6832 16.25H23.0124V20.0417C23.0124 22.1325 21.3115 23.8333 19.2207 23.8333H8.38737C6.29654 23.8333 4.5957 22.1325 4.5957 20.0417V19.3375C4.5957 17.6367 5.98237 16.25 7.6832 16.25Z" fill="white" stroke="#E9673C" stroke-width="1.7" stroke-linecap="round" stroke-linejoin="round"/>
<path d="M9.4707 7.58325H18.1374" stroke="white" stroke-width="1.7" stroke-linecap="round" stroke-linejoin="round"/>
<path d="M9.4707 11.375H14.8874" stroke="white" stroke-width="1.7" stroke-linecap="round" stroke-linejoin="round"/>
</svg>
