<svg width="27" height="26" viewBox="0 0 27 26" fill="none" xmlns="http://www.w3.org/2000/svg">
<path d="M13.2809 11.7757C13.1726 11.7648 13.0426 11.7648 12.9234 11.7757C10.3451 11.689 8.29761 9.5765 8.29761 6.9765C8.29761 4.32234 10.4426 2.1665 13.1076 2.1665C15.7618 2.1665 17.9176 4.32234 17.9176 6.9765C17.9068 9.5765 15.8593 11.689 13.2809 11.7757Z" fill="#E9673C" stroke="#E9673C" stroke-width="1.7" stroke-linecap="round" stroke-linejoin="round"/>
<path d="M7.86444 15.7735C5.24278 17.5285 5.24278 20.3885 7.86444 22.1327C10.8436 24.126 15.7294 24.126 18.7086 22.1327C21.3303 20.3777 21.3303 17.5177 18.7086 15.7735C15.7403 13.791 10.8544 13.791 7.86444 15.7735Z" fill="#E9673C" stroke="#E9673C" stroke-width="1.7" stroke-linecap="round" stroke-linejoin="round"/>
</svg>
