<svg width="20" height="21" viewBox="0 0 20 21" fill="none" xmlns="http://www.w3.org/2000/svg">
<g id="Name=Edit">
<path id="Vector" d="M3.33337 17.0002H16.6667M3.33337 17.0002V13.6668L10 7.00016M3.33337 17.0002L6.66671 17.0001L13.3334 10.3335M10 7.00016L12.3906 4.60961L12.392 4.6082C12.7211 4.27913 12.8859 4.1143 13.0759 4.05257C13.2433 3.99818 13.4236 3.99818 13.5909 4.05257C13.7808 4.11426 13.9454 4.2789 14.274 4.6075L15.7239 6.05733C16.0539 6.38734 16.219 6.55243 16.2808 6.7427C16.3352 6.91007 16.3352 7.09036 16.2808 7.25773C16.219 7.44786 16.0542 7.6127 15.7246 7.94224L15.7239 7.94295L13.3334 10.3335M10 7.00016L13.3334 10.3335" stroke="#4F5174" stroke-width="1.6" stroke-linecap="round" stroke-linejoin="round"/>
</g>
</svg>
