<svg width="21" height="20" viewBox="0 0 21 20" fill="none" xmlns="http://www.w3.org/2000/svg">
<g id="google 1" clip-path="url(#clip0_310_4079)">
<path id="Vector" d="M19.7446 8.26129L11.5868 8.26089C11.2266 8.26089 10.9346 8.55285 10.9346 8.91308V11.5191C10.9346 11.8793 11.2266 12.1713 11.5868 12.1713H16.1807C15.6777 13.4768 14.7388 14.5702 13.5409 15.2648L15.4998 18.6558C18.642 16.8385 20.4998 13.6499 20.4998 10.0804C20.4998 9.57218 20.4623 9.20886 20.3874 8.79976C20.3304 8.48894 20.0606 8.26129 19.7446 8.26129Z" fill="#167EE6"/>
<path id="Vector_2" d="M10.5001 16.0869C8.25186 16.0869 6.2892 14.8586 5.2351 13.0409L1.84424 14.9953C3.56982 17.9861 6.8024 20 10.5001 20C12.314 20 14.0256 19.5116 15.5001 18.6605V18.6558L13.5412 15.2648C12.6452 15.7845 11.6083 16.0869 10.5001 16.0869Z" fill="#12B347"/>
<path id="Vector_3" d="M15.5 18.6605V18.6558L13.5411 15.2648C12.6451 15.7844 11.6083 16.0869 10.5 16.0869V20C12.3139 20 14.0256 19.5116 15.5 18.6605Z" fill="#0F993E"/>
<path id="Vector_4" d="M4.41305 10C4.41305 8.89183 4.71547 7.85508 5.23504 6.9591L1.84418 5.00465C0.988359 6.47445 0.5 8.1814 0.5 10C0.5 11.8186 0.988359 13.5255 1.84418 14.9953L5.23504 13.0409C4.71547 12.1449 4.41305 11.1082 4.41305 10Z" fill="#FFD500"/>
<path id="Vector_5" d="M10.5001 3.91305C11.9661 3.91305 13.3128 4.43398 14.3646 5.30051C14.6241 5.51426 15.0012 5.49883 15.2389 5.26113L17.0854 3.41465C17.3551 3.14496 17.3359 2.70352 17.0478 2.45359C15.2855 0.924726 12.9925 0 10.5001 0C6.8024 0 3.56982 2.01395 1.84424 5.00465L5.2351 6.9591C6.2892 5.14141 8.25186 3.91305 10.5001 3.91305Z" fill="#FF4B26"/>
<path id="Vector_6" d="M14.3645 5.30051C14.624 5.51426 15.0012 5.49883 15.2389 5.26113L17.0854 3.41465C17.355 3.14496 17.3358 2.70352 17.0477 2.45359C15.2854 0.924688 12.9925 0 10.5 0V3.91305C11.966 3.91305 13.3127 4.43398 14.3645 5.30051Z" fill="#D93F21"/>
</g>
<defs>
<clipPath id="clip0_310_4079">
<rect width="20" height="20" fill="white" transform="translate(0.5)"/>
</clipPath>
</defs>
</svg>
