<svg width="20" height="20" viewBox="0 0 20 20" fill="none" xmlns="http://www.w3.org/2000/svg">
<g id="Icon">
<path id="Vector" d="M8.33252 13.3333H4.16585V17.5M11.6659 6.66667H15.8325V2.5M3.81836 7.50284C4.2856 6.34638 5.06789 5.3442 6.07631 4.61019C7.08474 3.87618 8.2799 3.4396 9.52398 3.35042C10.7681 3.26125 12.0115 3.52284 13.1143 4.10551C14.2171 4.68819 15.1335 5.56878 15.7609 6.64677M16.1805 12.4976C15.7132 13.654 14.931 14.6562 13.9225 15.3902C12.9141 16.1242 11.7202 16.5602 10.4761 16.6494C9.23199 16.7386 7.98757 16.477 6.88477 15.8944C5.78196 15.3117 4.86487 14.4313 4.23747 13.3533" stroke="#E9673C" stroke-width="1.6" stroke-linecap="round" stroke-linejoin="round"/>
</g>
</svg>
