<svg width="20" height="21" viewBox="0 0 20 21" fill="none" xmlns="http://www.w3.org/2000/svg">
<g id="Name=Event list">
<path id="Vector" d="M3.33337 7.00006H16.6667M3.33337 7.00006V14.3336C3.33337 15.267 3.33337 15.7334 3.51503 16.09C3.67482 16.4036 3.9296 16.6588 4.2432 16.8186C4.59938 17.0001 5.06587 17.0001 5.99747 17.0001H14.0026C14.9342 17.0001 15.4 17.0001 15.7562 16.8186C16.0698 16.6588 16.3254 16.4036 16.4852 16.09C16.6667 15.7338 16.6667 15.268 16.6667 14.3364V7.00006M3.33337 7.00006V6.33356C3.33337 5.40014 3.33337 4.93308 3.51503 4.57656C3.67482 4.26295 3.9296 4.00817 4.2432 3.84838C4.59972 3.66673 5.06678 3.66673 6.0002 3.66673H6.66671M16.6667 7.00006V6.33082C16.6667 5.39922 16.6667 4.93273 16.4852 4.57656C16.3254 4.26295 16.0698 4.00817 15.7562 3.84838C15.3997 3.66673 14.9336 3.66673 14.0002 3.66673H13.3334M13.3334 2.00006V3.66673M13.3334 3.66673H6.66671M6.66671 2.00006V3.66673" stroke="#4F5174" stroke-width="1.6" stroke-linecap="round" stroke-linejoin="round"/>
</g>
</svg>
