<svg width="27" height="26" viewBox="0 0 27 26" fill="none" xmlns="http://www.w3.org/2000/svg">
<path d="M15.3161 3.67776L15.3165 3.67807L21.5563 8.04379C22.0229 8.37041 22.4794 8.9183 22.8199 9.57051C23.1604 10.2227 23.3493 10.911 23.3493 11.4834V18.8284C23.3493 21.1491 21.4649 23.0334 19.1443 23.0334H7.46594C5.14751 23.0334 3.26094 21.1405 3.26094 18.8176V11.3426C3.26094 10.813 3.43151 10.1599 3.74199 9.52929C4.05225 8.89915 4.46815 8.36075 4.89213 8.03004L4.8923 8.02991L10.3176 3.79579C10.3179 3.79553 10.3183 3.79527 10.3186 3.79501C11.6774 2.74301 13.9028 2.68755 15.3161 3.67776ZM13.3051 21.1126C14.1911 21.1126 14.9176 20.3861 14.9176 19.5001V16.2501C14.9176 15.3641 14.1911 14.6376 13.3051 14.6376C12.4191 14.6376 11.6926 15.3641 11.6926 16.2501V19.5001C11.6926 20.3861 12.4191 21.1126 13.3051 21.1126Z" stroke="#B4B4C3" stroke-width="1.6"/>
</svg>
