<svg width="24" height="24" viewBox="0 0 24 24" fill="none" xmlns="http://www.w3.org/2000/svg">
<g id="image-gallery 1" clip-path="url(#clip0_205_1675)">
<g id="Group">
<path id="Vector" d="M17.4525 23.9982C17.2845 23.9982 17.1125 23.9772 16.9425 23.9322L1.47953 19.7912C0.419527 19.4992 -0.212473 18.4012 0.0655269 17.3412L2.01653 10.0692C2.08853 9.80219 2.36253 9.64719 2.62853 9.71519C2.89553 9.78619 3.05353 10.0612 2.98253 10.3272L1.03253 17.5972C0.893527 18.1272 1.21153 18.6792 1.74253 18.8262L17.1995 22.9652C17.7305 23.1052 18.2785 22.7892 18.4165 22.2612L19.1975 19.3672C19.2695 19.1002 19.5435 18.9412 19.8105 19.0142C20.0775 19.0862 20.2345 19.3612 20.1635 19.6272L19.3835 22.5172C19.1485 23.4072 18.3385 23.9982 17.4525 23.9982Z" fill="#B4B4C3"/>
</g>
<g id="Group_2">
<path id="Vector_2" d="M22 17.999H6C4.897 17.999 4 17.102 4 15.999V3.99902C4 2.89602 4.897 1.99902 6 1.99902H22C23.103 1.99902 24 2.89602 24 3.99902V15.999C24 17.102 23.103 17.999 22 17.999ZM6 2.99902C5.449 2.99902 5 3.44802 5 3.99902V15.999C5 16.55 5.449 16.999 6 16.999H22C22.551 16.999 23 16.55 23 15.999V3.99902C23 3.44802 22.551 2.99902 22 2.99902H6Z" fill="#B4B4C3"/>
</g>
<g id="Group_3">
<path id="Vector_3" d="M9 8.99902C7.897 8.99902 7 8.10202 7 6.99902C7 5.89602 7.897 4.99902 9 4.99902C10.103 4.99902 11 5.89602 11 6.99902C11 8.10202 10.103 8.99902 9 8.99902ZM9 5.99902C8.449 5.99902 8 6.44802 8 6.99902C8 7.55002 8.449 7.99902 9 7.99902C9.551 7.99902 10 7.55002 10 6.99902C10 6.44802 9.551 5.99902 9 5.99902Z" fill="#B4B4C3"/>
</g>
<g id="Group_4">
<path id="Vector_4" d="M4.57056 16.9288C4.44256 16.9288 4.31456 16.8798 4.21656 16.7828C4.02156 16.5878 4.02156 16.2708 4.21656 16.0758L8.93956 11.3528C9.50556 10.7868 10.4946 10.7868 11.0606 11.3528L12.4666 12.7588L16.3586 8.08883C16.6416 7.74983 17.0576 7.55283 17.5006 7.54883H17.5116C17.9496 7.54883 18.3646 7.73883 18.6506 8.07183L23.8806 14.1738C24.0606 14.3828 24.0366 14.6988 23.8266 14.8788C23.6176 15.0588 23.3026 15.0358 23.1216 14.8248L17.8916 8.72283C17.7946 8.61083 17.6606 8.54883 17.5116 8.54883C17.4076 8.53983 17.2246 8.61183 17.1276 8.72883L12.8846 13.8198C12.7946 13.9278 12.6636 13.9928 12.5226 13.9988C12.3806 14.0088 12.2456 13.9528 12.1466 13.8528L10.3536 12.0598C10.1646 11.8718 9.83556 11.8718 9.64656 12.0598L4.92356 16.7828C4.82656 16.8798 4.69856 16.9288 4.57056 16.9288Z" fill="#B4B4C3"/>
</g>
</g>
<defs>
<clipPath id="clip0_205_1675">
<rect width="24" height="24" fill="white"/>
</clipPath>
</defs>
</svg>
