<svg width="21" height="20" viewBox="0 0 21 20" fill="none" xmlns="http://www.w3.org/2000/svg">
<g id="gift-box-with-a-bow 3" clip-path="url(#clip0_1159_7082)">
<g id="Group">
<g id="Group_2">
<g id="Group_3">
<path id="Vector" d="M9.13394 11.1055C7.48675 11.1055 2.63886 11.1055 2.63886 11.1055C2.12423 11.1055 1.70312 11.5265 1.70312 12.0411V19.0643C1.70312 19.5789 2.12423 19.9999 2.63886 19.9999C2.63886 19.9999 7.58819 19.9999 9.24315 19.9999C9.46328 19.9999 9.46328 19.7635 9.46328 19.7635V11.4234C9.46328 11.4234 9.46321 11.1055 9.13394 11.1055Z" fill="#B4B4C3"/>
<path id="Vector_2" d="M17.8667 11.1055C17.8667 11.1055 13.0003 11.1055 11.3782 11.1055C10.983 11.1055 11.0422 11.517 11.0422 11.517V19.7711C11.0422 19.7711 11.039 19.9997 11.2767 19.9997C12.9242 19.9997 17.8666 19.9997 17.8666 19.9997C18.3812 19.9997 18.8023 19.5787 18.8023 19.0641V12.0411C18.8024 11.5265 18.3813 11.1055 17.8667 11.1055Z" fill="#B4B4C3"/>
</g>
<g id="Group_4">
<path id="Vector_3" d="M9.4613 5.57977C9.4613 5.57977 9.46129 5.2627 9.14797 5.2627C7.27179 5.2627 1.58027 5.2627 1.58027 5.2627C1.06563 5.2627 0.644531 5.6838 0.644531 6.19836V9.11922C0.644531 9.63385 1.06563 10.0549 1.58027 10.0549C1.58027 10.0549 7.29729 10.0549 9.17361 10.0549C9.4613 10.0549 9.4613 9.80538 9.4613 9.80538V5.57977Z" fill="#B4B4C3"/>
<path id="Vector_4" d="M18.9239 5.2627C18.9239 5.2627 13.2301 5.2627 11.3321 5.2627C11.043 5.2627 11.043 5.53818 11.043 5.53818V9.81117C11.043 9.81117 11.043 10.0549 11.3945 10.0549C13.2768 10.0549 18.9239 10.0549 18.9239 10.0549C19.4386 10.0549 19.8597 9.63385 19.8597 9.11922V6.19836C19.8597 5.6838 19.4386 5.2627 18.9239 5.2627Z" fill="#B4B4C3"/>
</g>
<g id="Group_5">
<path id="Vector_5" d="M6.27776 4.57029C5.84964 4.57029 5.4586 4.53634 5.11569 4.46933C4.24472 4.29917 3.64609 3.96799 3.2856 3.45696C2.96259 2.99898 2.86374 2.43438 2.9917 1.77876C3.21585 0.631687 3.98621 0 5.16068 0C5.40924 0 5.6822 0.0287007 5.97207 0.0853521C6.70943 0.229401 7.65253 0.652207 8.49494 1.21634C9.92418 2.17355 9.99487 2.76863 9.9237 3.13301C9.81905 3.66844 9.3186 4.05102 8.3937 4.30271C7.76883 4.47274 6.99759 4.57029 6.27776 4.57029ZM5.16075 1.49973C4.7059 1.49973 4.54958 1.6268 4.46375 2.06631C4.39354 2.42565 4.48209 2.55115 4.51113 2.5924C4.63275 2.76488 4.94955 2.90872 5.40324 2.99728C5.64805 3.04513 5.95053 3.07043 6.27769 3.07043C6.99712 3.07043 7.63092 2.96142 8.05147 2.84218C8.08208 2.83353 8.1296 2.79733 8.07868 2.76699C7.52886 2.3191 6.52298 1.72102 5.68452 1.5572C5.48921 1.51916 5.31291 1.49973 5.16075 1.49973Z" fill="#B4B4C3"/>
</g>
<g id="Group_6">
<path id="Vector_6" d="M14.2464 4.57022C14.2464 4.57022 14.2464 4.57022 14.2462 4.57022C13.5264 4.57022 12.7552 4.47267 12.1304 4.30264C11.2054 4.05102 10.705 3.66837 10.6004 3.13301C10.5293 2.76863 10.5998 2.17355 12.0292 1.21634C12.8715 0.652207 13.8146 0.229401 14.5521 0.0853521C14.8419 0.0287007 15.1149 0 15.3632 0C16.538 0 17.3083 0.631755 17.5322 1.77883C17.6603 2.43438 17.5615 2.99898 17.2385 3.45696C16.878 3.96805 16.2794 4.29917 15.4082 4.46933C15.0655 4.5362 14.6744 4.57022 14.2464 4.57022ZM12.4574 2.75765C12.4086 2.78594 12.4322 2.83059 12.4575 2.83789C12.8779 2.95876 13.5184 3.07043 14.2462 3.07043C14.5735 3.07043 14.8759 3.04513 15.1207 2.99728C15.5744 2.90865 15.8913 2.76488 16.0129 2.5924C16.042 2.55115 16.1307 2.42565 16.0602 2.06631C15.9745 1.6268 15.8181 1.49973 15.3632 1.49973C15.2111 1.49973 15.0349 1.51909 14.8395 1.55727C14.0009 1.72102 13.0072 2.30969 12.4574 2.75765Z" fill="#B4B4C3"/>
</g>
</g>
</g>
</g>
<defs>
<clipPath id="clip0_1159_7082">
<rect width="20" height="20" fill="white" transform="translate(0.25)"/>
</clipPath>
</defs>
</svg>
