<svg width="21" height="20" viewBox="0 0 21 20" fill="none" xmlns="http://www.w3.org/2000/svg">
<g id="Component 1">
<path id="Vector" d="M14.6667 17.5C14.6667 15.1988 12.8012 13.3333 10.5 13.3333C8.19881 13.3333 6.33333 15.1988 6.33333 17.5M14.6667 17.5H15.3359C16.2675 17.5 16.7333 17.5 17.0895 17.3185C17.4031 17.1587 17.6587 16.9031 17.8185 16.5895C18 16.2333 18 15.7675 18 14.8359V5.16409C18 4.23249 18 3.766 17.8185 3.40983C17.6587 3.09623 17.4031 2.84144 17.0895 2.68166C16.733 2.5 16.2669 2.5 15.3335 2.5H5.66683C4.73341 2.5 4.26635 2.5 3.90983 2.68166C3.59623 2.84144 3.34144 3.09623 3.18166 3.40983C3 3.76635 3 4.23341 3 5.16683V14.8335C3 15.7669 3 16.233 3.18166 16.5895C3.34144 16.9031 3.59623 17.1587 3.90983 17.3185C4.266 17.5 4.73249 17.5 5.66409 17.5H6.33333M14.6667 17.5H6.33333M10.5 10.8333C9.11929 10.8333 8 9.71405 8 8.33333C8 6.95262 9.11929 5.83333 10.5 5.83333C11.8807 5.83333 13 6.95262 13 8.33333C13 9.71405 11.8807 10.8333 10.5 10.8333Z" stroke="#B4B4C3" stroke-width="1.6" stroke-linecap="round" stroke-linejoin="round"/>
</g>
</svg>
