<svg width="81" height="80" viewBox="0 0 81 80" fill="none" xmlns="http://www.w3.org/2000/svg">
<g id="image-gallery 1" clip-path="url(#clip0_154_1065)">
<g id="Group">
<path id="Vector" d="M58.927 80.0001C58.367 80.0001 57.7937 79.9301 57.227 79.7801L5.68371 65.9768C2.15038 65.0035 0.0437095 61.3435 0.970376 57.8101L7.47371 33.5701C7.71371 32.6801 8.62704 32.1635 9.51371 32.3901C10.4037 32.6268 10.9304 33.5435 10.6937 34.4301L4.19371 58.6635C3.73038 60.4301 4.79038 62.2701 6.56038 62.7601L58.0837 76.5568C59.8537 77.0235 61.6804 75.9701 62.1404 74.2101L64.7437 64.5635C64.9837 63.6735 65.897 63.1435 66.787 63.3868C67.677 63.6268 68.2004 64.5435 67.9637 65.4301L65.3637 75.0635C64.5804 78.0301 61.8804 80.0001 58.927 80.0001Z" fill="#B4B4C3"/>
</g>
<g id="Group_2">
<path id="Vector_2" d="M74.083 60.0003H20.7497C17.073 60.0003 14.083 57.0103 14.083 53.3337V13.3337C14.083 9.65699 17.073 6.66699 20.7497 6.66699H74.083C77.7597 6.66699 80.7497 9.65699 80.7497 13.3337V53.3337C80.7497 57.0103 77.7597 60.0003 74.083 60.0003ZM20.7497 10.0003C18.913 10.0003 17.4163 11.497 17.4163 13.3337V53.3337C17.4163 55.1703 18.913 56.667 20.7497 56.667H74.083C75.9197 56.667 77.4163 55.1703 77.4163 53.3337V13.3337C77.4163 11.497 75.9197 10.0003 74.083 10.0003H20.7497Z" fill="#B4B4C3"/>
</g>
<g id="Group_3">
<path id="Vector_3" d="M30.7497 30.0003C27.073 30.0003 24.083 27.0103 24.083 23.3337C24.083 19.657 27.073 16.667 30.7497 16.667C34.4263 16.667 37.4163 19.657 37.4163 23.3337C37.4163 27.0103 34.4263 30.0003 30.7497 30.0003ZM30.7497 20.0003C28.913 20.0003 27.4163 21.497 27.4163 23.3337C27.4163 25.1703 28.913 26.667 30.7497 26.667C32.5863 26.667 34.083 25.1703 34.083 23.3337C34.083 21.497 32.5863 20.0003 30.7497 20.0003Z" fill="#B4B4C3"/>
</g>
<g id="Group_4">
<path id="Vector_4" d="M15.9829 56.4337C15.5563 56.4337 15.1296 56.2703 14.8029 55.947C14.1529 55.297 14.1529 54.2403 14.8029 53.5903L30.5463 37.847C32.4329 35.9603 35.7296 35.9603 37.6163 37.847L42.3029 42.5337L55.2763 26.967C56.2196 25.837 57.6063 25.1803 59.0829 25.167H59.1196C60.5796 25.167 61.9629 25.8003 62.9163 26.9103L80.3496 47.2503C80.9496 47.947 80.8696 49.0003 80.1696 49.6003C79.4729 50.2003 78.4229 50.1237 77.8196 49.4203L60.3863 29.0803C60.0629 28.707 59.6163 28.5003 59.1196 28.5003C58.7729 28.4703 58.1629 28.7103 57.8396 29.1003L43.6963 46.0703C43.3963 46.4303 42.9596 46.647 42.4896 46.667C42.0163 46.7003 41.5663 46.5137 41.2363 46.1803L35.2596 40.2037C34.6296 39.577 33.5329 39.577 32.9029 40.2037L17.1596 55.947C16.8363 56.2703 16.4096 56.4337 15.9829 56.4337Z" fill="#B4B4C3"/>
</g>
</g>
<defs>
<clipPath id="clip0_154_1065">
<rect width="80" height="80" fill="white" transform="translate(0.75)"/>
</clipPath>
</defs>
</svg>
