<svg width="59" height="49" viewBox="0 0 59 49" fill="none" xmlns="http://www.w3.org/2000/svg">
<g id="Group">
<g id="Group_2">
<path id="Vector" d="M55.386 12.2124H52.2421V4.10613C52.2423 2.2074 50.6897 0.654053 48.7902 0.654053H10.8177C8.91979 0.654053 7.36559 2.2074 7.36559 4.10613V12.2124H4.22161C2.32386 12.2124 0.769531 13.7657 0.769531 15.6644V44.9454C0.769531 46.844 2.32386 48.3975 4.22161 48.3975H55.3861C57.2856 48.3975 58.8382 46.8442 58.8382 44.9454V15.6644C58.8381 13.7659 57.2855 12.2124 55.386 12.2124ZM52.2423 14.8015H54.2048L52.2423 18.0715V14.8015ZM9.95449 4.10613C9.95449 3.63843 10.3507 3.2432 10.8177 3.2432H48.7903C49.259 3.2432 49.6532 3.63843 49.6532 4.10613V20.1894L31.656 32.8807C31.1944 33.263 30.5081 33.4916 29.8041 33.49C29.0999 33.4917 28.4156 33.263 27.9521 32.8807L9.95449 20.1901V4.10613ZM7.36559 14.8014V18.0714L5.40311 14.8014H7.36559ZM56.2491 43.7501L44.6184 30.9389C44.1688 30.3831 43.3541 30.2977 42.7983 30.7474C42.2416 31.197 42.1561 32.0127 42.6059 32.5684L54.5835 45.8086H5.02425L17.002 32.5684C17.4516 32.0126 17.3662 31.1979 16.8096 30.7474C16.2547 30.2978 15.4391 30.3832 14.9895 30.9389L3.35856 43.751V16.474L26.313 34.8845C27.321 35.7043 28.5715 36.0763 29.8038 36.0789C31.0361 36.0772 32.2884 35.7043 33.2946 34.8845L56.2491 16.474V43.7501Z" fill="#F4DBD3"/>
</g>
</g>
</svg>
