<svg width="21" height="21" viewBox="0 0 21 21" fill="none" xmlns="http://www.w3.org/2000/svg">
<g id="Icon">
<path id="Vector" d="M3.83398 17.1671H17.1673M3.83398 17.1671V13.8338L10.5007 7.16709M3.83398 17.1671L7.16732 17.1671L13.834 10.5004M10.5007 7.16709L12.8912 4.77654L12.8926 4.77513C13.2217 4.44606 13.3865 4.28123 13.5765 4.2195C13.7439 4.16512 13.9242 4.16512 14.0916 4.2195C14.2814 4.28119 14.4461 4.44583 14.7747 4.77443L16.2245 6.22426C16.5545 6.55427 16.7196 6.71936 16.7814 6.90963C16.8358 7.077 16.8358 7.25729 16.7814 7.42466C16.7196 7.61479 16.5548 7.77963 16.2252 8.10917L16.2245 8.10988L13.834 10.5004M10.5007 7.16709L13.834 10.5004" stroke="#E9673C" stroke-width="1.6" stroke-linecap="round" stroke-linejoin="round"/>
</g>
</svg>
