<svg width="89" height="88" viewBox="0 0 89 88" fill="none" xmlns="http://www.w3.org/2000/svg">
<g id="email 1" clip-path="url(#clip0_77_653)">
<g id="Group">
<g id="Group_2">
<path id="Vector" d="M57.5198 47.6525L50.1496 55.0476C47.1609 58.0468 41.9022 58.1115 38.8489 55.0476L31.4783 47.6525L5.00684 74.21C5.9922 74.6656 7.07862 74.9375 8.23362 74.9375H80.7649C81.9199 74.9375 83.0059 74.6659 83.991 74.2101L57.5198 47.6525Z" fill="#FEE3D7"/>
</g>
</g>
<g id="Group_3">
<g id="Group_4">
<path id="Vector_2" d="M80.7655 13.0625H8.23425C7.07925 13.0625 5.99283 13.3344 5.00781 13.79L33.2945 42.1706C33.2964 42.1725 33.2986 42.1728 33.3005 42.1747C33.3024 42.1766 33.3027 42.1792 33.3027 42.1792L42.5003 51.4071C43.4772 52.3841 45.5229 52.3841 46.4998 51.4071L55.6955 42.1807C55.6955 42.1807 55.6977 42.1766 55.6996 42.1747C55.6996 42.1747 55.7037 42.1725 55.7056 42.1706L83.9916 13.7899C83.0066 13.3341 81.9205 13.0625 80.7655 13.0625Z" fill="#FEE3D7"/>
</g>
</g>
<g id="Group_5">
<g id="Group_6">
<path id="Vector_3" d="M1.32259 17.3958C0.812812 18.4267 0.5 19.5711 0.5 20.7969V67.2031C0.5 68.4289 0.812469 69.5733 1.32242 70.6042L27.8398 44.0009L1.32259 17.3958Z" fill="#FEE3D7"/>
</g>
</g>
<g id="Group_7">
<g id="Group_8">
<path id="Vector_4" d="M87.6762 17.3955L61.1592 44.0009L87.6762 70.6045C88.186 69.5736 88.4988 68.4293 88.4988 67.2031V20.7969C88.4988 19.5707 88.186 18.4264 87.6762 17.3955Z" fill="#FEE3D7"/>
</g>
</g>
</g>
<defs>
<clipPath id="clip0_77_653">
<rect width="88" height="88" fill="white" transform="translate(0.5)"/>
</clipPath>
</defs>
</svg>
