<svg width="20" height="20" viewBox="0 0 20 20" fill="none" xmlns="http://www.w3.org/2000/svg">
<g id="Name=Groups">
<path id="Vector" d="M14.1667 16.6667C14.1667 15.286 12.3012 14.1667 10 14.1667C7.69881 14.1667 5.83333 15.286 5.83333 16.6667M17.5 14.167C17.5 13.1418 16.4716 12.2608 15 11.875M2.5 14.167C2.5 13.1418 3.52841 12.2608 5 11.875M15 8.53011C15.5115 8.07234 15.8333 7.4071 15.8333 6.66669C15.8333 5.28597 14.714 4.16669 13.3333 4.16669C12.693 4.16669 12.109 4.4074 11.6667 4.80326M5 8.53011C4.48854 8.07234 4.16667 7.4071 4.16667 6.66669C4.16667 5.28597 5.28595 4.16669 6.66667 4.16669C7.30696 4.16669 7.89104 4.4074 8.33333 4.80326M10 11.6667C8.61929 11.6667 7.5 10.5474 7.5 9.16669C7.5 7.78597 8.61929 6.66669 10 6.66669C11.3807 6.66669 12.5 7.78597 12.5 9.16669C12.5 10.5474 11.3807 11.6667 10 11.6667Z" stroke="#4F5174" stroke-width="1.6" stroke-linecap="round" stroke-linejoin="round"/>
</g>
</svg>
