<svg width="145" height="144" viewBox="0 0 145 144" fill="none" xmlns="http://www.w3.org/2000/svg">
<g id="empty-box 1" clip-path="url(#clip0_764_8242)">
<g id="Group">
<path id="Vector" d="M54.4282 53.638C56.7578 53.638 58.6464 51.7494 58.6464 49.4198C58.6464 47.0903 56.7578 45.2017 54.4282 45.2017C40.1557 45.2017 33.655 38.1616 33.655 31.6207C33.655 26.8376 37.2843 22.0115 45.3921 22.0115C54.4662 22.0115 61.0648 29.2802 65.0051 43.6154C68.2325 55.357 68.2826 67.3745 68.2826 67.4946C68.2837 69.8232 70.1718 71.7104 72.5007 71.7104C74.8303 71.7104 76.7189 69.8218 76.7189 67.4923C76.7189 66.9619 76.6787 54.3553 73.1815 41.533C66.8796 18.4258 54.5911 13.5752 45.3921 13.5752C32.148 13.5752 25.2188 22.6532 25.2188 31.6207C25.2188 43.409 36.0341 53.638 54.4282 53.638Z" fill="#F0F0F3"/>
<path id="Vector_2" d="M86.0551 45.2014C83.7255 45.2014 81.8369 47.09 81.8369 49.4196C81.8369 51.7491 83.7255 53.6377 86.0551 53.6377C108.831 53.6377 122.006 41.2825 122.006 27.1771C122.006 17.3029 114.292 4.53857 95.0914 4.53857C92.7619 4.53857 90.8733 6.42718 90.8733 8.75671C90.8733 11.0863 92.7619 12.9749 95.0914 12.9749C123.661 13.9341 118.121 46.0892 86.0551 45.2014Z" fill="#F0F0F3"/>
<path id="Vector_3" d="M74.0361 11.7396C75.6069 13.3735 78.4308 13.3737 80.0013 11.7396L84.5193 7.22145C88.3246 3.12479 82.652 -2.5503 78.5537 1.25615L77.0186 2.79155L75.4832 1.25615C71.3848 -2.5503 65.7125 3.12507 69.5179 7.22145L74.0361 11.7396Z" fill="#F0F0F3"/>
<path id="Vector_4" d="M76.7188 144H117.682C120.011 144 121.9 142.111 121.9 139.782V97.0718H76.7188V144Z" fill="#F0F0F3"/>
<path id="Vector_5" d="M23.1016 139.782C23.1016 142.111 24.9902 144 27.3197 144H68.2826V97.0718H23.1016V139.782Z" fill="#F0F0F3"/>
<path id="Vector_6" d="M144.168 70.3962C143.515 68.8201 141.978 67.7922 140.271 67.7922H95.0904C93.9717 67.7922 92.8989 68.2368 92.1079 69.0279L72.5 88.6358H129.611L143.254 74.9932C144.46 73.7868 144.821 71.9724 144.168 70.3962Z" fill="#F0F0F3"/>
<path id="Vector_7" d="M49.9099 67.7922H4.72884C3.02274 67.7922 1.48452 68.8201 0.831835 70.3962C0.179148 71.9724 0.53994 73.7868 1.74633 74.9932L15.3889 88.6358H72.5003L52.8924 69.0279C52.1014 68.2365 51.0286 67.7922 49.9099 67.7922Z" fill="#F0F0F3"/>
</g>
</g>
<defs>
<clipPath id="clip0_764_8242">
<rect width="144" height="144" fill="white" transform="translate(0.5)"/>
</clipPath>
</defs>
</svg>
